<svg width="62" height="69" viewBox="0 0 62 69" fill="none" xmlns="http://www.w3.org/2000/svg">
<path d="M9.1 29.8662H3V32.9062H9.1V29.8662Z" fill="black"/>
<path d="M51.807 29.8384L51.793 32.8784L57.893 32.9063L57.907 29.8663L51.807 29.8384Z" fill="black"/>
<path d="M28.9253 4.01912L28.8967 10.0991L31.9467 10.1134L31.9753 4.03337L28.9253 4.01912Z" fill="black"/>
<path d="M14.2751 45.3589L9.96191 49.658L12.1184 51.8073L16.4316 47.5083L14.2751 45.3589Z" fill="black"/>
<path d="M48.7868 10.9604L44.4534 15.2393L46.6003 17.3993L50.9337 13.1205L48.7868 10.9604Z" fill="black"/>
<path d="M46.6248 45.359L44.4685 47.5085L48.782 51.8073L50.9383 49.6578L46.6248 45.359Z" fill="black"/>
<path d="M12.1232 10.9703L9.95654 13.1101L14.2501 17.429L16.4167 15.2892L12.1232 10.9703Z" fill="black"/>
<path d="M30.4499 13.1462C26.4215 13.1462 22.5056 14.471 19.3096 16.9153C16.1136 19.3596 13.8161 22.7867 12.7735 26.6651C11.7308 30.5435 12.0013 34.6565 13.5429 38.366C15.0845 42.0756 17.8112 45.1745 21.2999 47.1821V64.8262H39.5999V47.1821C43.0887 45.1745 45.8153 42.0756 47.357 38.366C48.8986 34.6565 49.169 30.5435 48.1264 26.6651C47.0838 22.7867 44.7863 19.3596 41.5903 16.9153C38.3943 14.471 34.4784 13.1462 30.4499 13.1462ZM24.3499 61.5917V57.662L36.1778 61.5917H24.3499ZM36.5499 58.5111L24.3499 54.4578V51.582L36.5499 55.6353V58.5111ZM24.6077 48.4655H36.5499V52.4315L24.6077 48.4655ZM38.0712 44.5515L36.5575 45.4255H24.3424L22.8287 44.5515C19.9206 42.8791 17.6475 40.2969 16.362 37.2055C15.0765 34.1141 14.8505 30.6863 15.719 27.4538C16.5875 24.2213 18.502 21.3648 21.1655 19.3274C23.829 17.2901 27.0925 16.1858 30.45 16.1858C33.8074 16.1858 37.0709 17.2901 39.7344 19.3274C42.3979 21.3648 44.3124 24.2213 45.1809 27.4538C46.0494 30.6863 45.8234 34.1141 44.5379 37.2055C43.2524 40.2969 40.9793 42.8791 38.0712 44.5515Z" fill="black"/>
</svg>
