<svg width="62" height="69" viewBox="0 0 62 69" fill="none" xmlns="http://www.w3.org/2000/svg">
<path d="M9.1 29.8662H3V32.9062H9.1V29.8662Z" fill="black"/>
<path d="M51.807 29.8384L51.793 32.8784L57.893 32.9063L57.907 29.8663L51.807 29.8384Z" fill="black"/>
<path d="M28.9253 4.01912L28.8967 10.0991L31.9467 10.1134L31.9753 4.03337L28.9253 4.01912Z" fill="black"/>
<path d="M14.275 45.3589L9.96182 49.658L12.1183 51.8073L16.4315 47.5083L14.275 45.3589Z" fill="black"/>
<path d="M48.7868 10.9604L44.4534 15.2393L46.6003 17.3993L50.9337 13.1205L48.7868 10.9604Z" fill="black"/>
<path d="M46.6247 45.359L44.4684 47.5085L48.7819 51.8073L50.9382 49.6578L46.6247 45.359Z" fill="black"/>
<path d="M12.1232 10.9703L9.95657 13.1101L14.2501 17.429L16.4168 15.2892L12.1232 10.9703Z" fill="black"/>
<path d="M30.45 13.1462C26.4216 13.1462 22.5057 14.471 19.3097 16.9153C16.1137 19.3596 13.8162 22.7867 12.7735 26.6651C11.7309 30.5435 12.0013 34.6565 13.543 38.366C15.0846 42.0756 17.8112 45.1745 21.3 47.1821V64.8262H39.6V47.1821C43.0887 45.1745 45.8154 42.0756 47.357 38.366C48.8986 34.6565 49.1691 30.5435 48.1265 26.6651C47.0838 22.7867 44.7863 19.3596 41.5903 16.9153C38.3943 14.471 34.4784 13.1462 30.45 13.1462ZM24.35 61.5917V57.662L36.1779 61.5917H24.35ZM36.55 58.5111L24.35 54.4578V51.582L36.55 55.6353V58.5111ZM24.6078 48.4655H36.55V52.4315L24.6078 48.4655ZM38.0713 44.5515L36.5575 45.4255H24.3425L22.8288 44.5515C19.9207 42.8791 17.6476 40.2969 16.3621 37.2055C15.0766 34.1141 14.8506 30.6863 15.7191 27.4538C16.5876 24.2213 18.5021 21.3648 21.1655 19.3274C23.829 17.2901 27.0926 16.1858 30.45 16.1858C33.8074 16.1858 37.071 17.2901 39.7345 19.3274C42.398 21.3648 44.3124 24.2213 45.1809 27.4538C46.0494 30.6863 45.8234 34.1141 44.5379 37.2055C43.2525 40.2969 40.9794 42.8791 38.0713 44.5515Z" fill="black"/>
</svg>
