<svg width="62" height="69" viewBox="0 0 62 69" fill="none" xmlns="http://www.w3.org/2000/svg">
<path d="M9.1 29.8667H3V32.9067H9.1V29.8667Z" fill="black"/>
<path d="M51.807 29.8389L51.793 32.8789L57.893 32.9068L57.907 29.8668L51.807 29.8389Z" fill="black"/>
<path d="M28.9253 4.01961L28.8967 10.0996L31.9467 10.1139L31.9753 4.03386L28.9253 4.01961Z" fill="black"/>
<path d="M14.275 45.3592L9.96185 49.6582L12.1183 51.8076L16.4315 47.5085L14.275 45.3592Z" fill="black"/>
<path d="M48.7868 10.9604L44.4534 15.2393L46.6003 17.3993L50.9337 13.1205L48.7868 10.9604Z" fill="black"/>
<path d="M46.6247 45.3593L44.4684 47.5088L48.7819 51.8075L50.9382 49.658L46.6247 45.3593Z" fill="black"/>
<path d="M12.1233 10.9706L9.9566 13.1104L14.2501 17.4293L16.4168 15.2895L12.1233 10.9706Z" fill="black"/>
<path d="M30.45 13.1465C26.4216 13.1464 22.5057 14.4713 19.3097 16.9155C16.1137 19.3598 13.8162 22.7869 12.7735 26.6653C11.7309 30.5437 12.0013 34.6567 13.543 38.3663C15.0846 42.0759 17.8112 45.1748 21.3 47.1823V64.8265H39.6V47.1823C43.0887 45.1748 45.8154 42.0759 47.357 38.3663C48.8986 34.6567 49.1691 30.5437 48.1265 26.6653C47.0838 22.7869 44.7863 19.3598 41.5903 16.9155C38.3943 14.4713 34.4784 13.1464 30.45 13.1465ZM24.35 61.5919V57.6622L36.1779 61.5919H24.35ZM36.55 58.5114L24.35 54.4581V51.5822L36.55 55.6355V58.5114ZM24.6078 48.4657H36.55V52.4318L24.6078 48.4657ZM38.0713 44.5517L36.5575 45.4257H24.3425L22.8288 44.5517C19.9207 42.8794 17.6476 40.2972 16.3621 37.2058C15.0766 34.1144 14.8506 30.6865 15.7191 27.454C16.5876 24.2215 18.5021 21.365 21.1655 19.3277C23.829 17.2903 27.0926 16.186 30.45 16.186C33.8074 16.186 37.071 17.2903 39.7345 19.3277C42.398 21.365 44.3124 24.2215 45.1809 27.454C46.0494 30.6865 45.8234 34.1144 44.5379 37.2058C43.2525 40.2972 40.9794 42.8794 38.0713 44.5517Z" fill="black"/>
</svg>
