<svg width="60" height="60" viewBox="0 0 60 60" fill="none" xmlns="http://www.w3.org/2000/svg">
<g clip-path="url(#clip0_12_64)">
<path d="M56.4958 14.2425L43.1977 6.57385C40.1205 4.79934 36.2763 7.02157 36.2783 10.5737L36.2806 14.4498C28.489 16.4143 21.3021 20.2907 15.3528 25.765C8.50754 32.0639 3.6548 40.1799 1.31939 49.2356C0.787881 51.2965 2.02766 53.3981 4.08854 53.9295C4.44064 54.0203 4.79382 54.0594 5.14019 54.0516C6.8216 54.0135 8.34177 52.8692 8.78244 51.1603C12.3267 37.4174 22.8917 26.5371 36.285 22.447L36.287 25.9261C36.2891 29.4784 40.1358 31.6962 43.2109 29.9181L56.5002 22.2342C59.5751 20.4564 59.5726 16.0169 56.4958 14.2425Z" fill="black"/>
<path d="M5.05354 55.2477C4.62876 55.2477 4.20423 55.1937 3.78985 55.0867C2.48434 54.75 1.38775 53.9249 0.702419 52.7634C0.017212 51.6019 -0.174737 50.243 0.16207 48.9371C2.55509 39.6577 7.52819 31.3408 14.5435 24.8854C20.3736 19.5208 27.4588 15.6061 35.0848 13.5278L35.0831 10.5742C35.0819 8.47389 36.1668 6.59253 37.9852 5.54136C39.8036 4.49018 41.9753 4.48911 43.7948 5.53837L57.0928 13.2071H57.0927C58.912 14.2561 59.9988 16.1363 60 18.2364C60.0012 20.3365 58.9166 22.2178 57.0985 23.269L43.8094 30.9529C41.9912 32.0042 39.8196 32.0058 37.9999 30.9565C36.1802 29.9075 35.0933 28.0272 35.0921 25.9269L35.091 24.0972C22.771 28.4313 13.2092 38.782 9.93986 51.4588C9.37776 53.638 7.41525 55.1956 5.16732 55.2465C5.12943 55.2472 5.09142 55.2477 5.05354 55.2477ZM40.8926 7.14651C40.3048 7.14651 39.7173 7.30129 39.1816 7.61096C38.1115 8.2296 37.4729 9.33683 37.4736 10.573L37.4759 14.4492C37.4763 14.9969 37.1041 15.4749 36.5728 15.6089C28.988 17.5212 21.9301 21.3372 16.1623 26.6446C9.48676 32.787 4.75438 40.7022 2.47669 49.5341C2.29944 50.2217 2.40044 50.9372 2.76127 51.5488C3.1221 52.1604 3.6995 52.5949 4.38709 52.7722C4.6259 52.8339 4.87043 52.8625 5.11318 52.8567C6.2963 52.83 7.32931 52.0097 7.62536 50.8619C9.40944 43.9444 12.9897 37.545 17.979 32.3556C22.9367 27.1992 29.1462 23.3777 35.9362 21.3041C36.2986 21.1934 36.6917 21.2611 36.9962 21.4864C37.3007 21.7115 37.4803 22.0678 37.4806 22.4465L37.4826 25.9256C37.4833 27.1616 38.123 28.2683 39.1939 28.8857C40.2649 29.5032 41.543 29.5023 42.6129 28.8836L55.902 21.1996C56.9721 20.581 57.6104 19.4738 57.6097 18.2378C57.609 17.0019 56.9695 15.8954 55.8988 15.2779H55.8987L42.6007 7.60905C42.0658 7.30069 41.4791 7.14651 40.8926 7.14651Z" fill="black"/>
<path d="M54.8256 18.8191C54.6264 18.8191 54.4244 18.7692 54.2385 18.6642L45.2853 13.6036C44.7107 13.2788 44.5082 12.5496 44.8329 11.975C45.1579 11.4003 45.8871 11.1978 46.4616 11.5226L55.4148 16.5832C55.9895 16.9079 56.192 17.6371 55.8672 18.2118C55.6474 18.6006 55.2424 18.8191 54.8256 18.8191Z" fill="black"/>
<path d="M42.2422 11.7066C42.043 11.7066 41.8411 11.6567 41.6552 11.5517L40.3241 10.7994C39.7494 10.4747 39.5469 9.74547 39.8717 9.17082C40.1965 8.59605 40.9254 8.39359 41.5004 8.71844L42.8315 9.4707C43.4061 9.79543 43.6086 10.5246 43.2839 11.0993C43.0641 11.4881 42.659 11.7066 42.2422 11.7066Z" fill="black"/>
</g>
<defs>
<clipPath id="clip0_12_64">
<rect width="60" height="60" fill="white"/>
</clipPath>
</defs>
</svg>
