<svg width="60" height="60" viewBox="0 0 60 60" fill="none" xmlns="http://www.w3.org/2000/svg">
<g clip-path="url(#clip0_13_663)">
<path d="M56.4958 14.2427L43.1977 6.57409C40.1205 4.79958 36.2763 7.02181 36.2783 10.5739L36.2806 14.4501C28.489 16.4145 21.3021 20.2909 15.3528 25.7653C8.50754 32.0642 3.6548 40.1802 1.31939 49.2358C0.787881 51.2967 2.02766 53.3984 4.08854 53.9297C4.44064 54.0206 4.79382 54.0597 5.14019 54.0519C6.8216 54.0138 8.34177 52.8695 8.78244 51.1606C12.3267 37.4176 22.8917 26.5374 36.285 22.4473L36.287 25.9264C36.2891 29.4786 40.1358 31.6964 43.2109 29.9183L56.5002 22.2344C59.5751 20.4567 59.5726 16.0171 56.4958 14.2427Z" fill="black"/>
<path d="M5.05354 55.248C4.62876 55.248 4.20423 55.1939 3.78985 55.087C2.48434 54.7503 1.38775 53.9251 0.702419 52.7636C0.017212 51.6021 -0.174737 50.2432 0.16207 48.9373C2.55509 39.6579 7.52819 31.341 14.5435 24.8856C20.3736 19.521 27.4588 15.6064 35.0848 13.528L35.0831 10.5745C35.0819 8.47414 36.1668 6.59278 37.9852 5.5416C39.8036 4.49042 41.9753 4.48935 43.7948 5.53861L57.0928 13.2074H57.0927C58.912 14.2564 59.9988 16.1366 60 18.2366C60.0012 20.3367 58.9166 22.2181 57.0985 23.2693L43.8094 30.9532C41.9912 32.0045 39.8196 32.006 37.9999 30.9568C36.1802 29.9077 35.0933 28.0275 35.0921 25.9271L35.091 24.0974C22.771 28.4316 13.2092 38.7822 9.93986 51.4591C9.37776 53.6383 7.41525 55.1959 5.16732 55.2468C5.12943 55.2475 5.09142 55.248 5.05354 55.248ZM40.8926 7.14675C40.3048 7.14675 39.7173 7.30153 39.1816 7.61121C38.1115 8.22984 37.4729 9.33707 37.4736 10.5733L37.4759 14.4494C37.4763 14.9972 37.1041 15.4751 36.5728 15.6091C28.988 17.5214 21.9301 21.3375 16.1623 26.6448C9.48676 32.7872 4.75438 40.7024 2.47669 49.5343C2.29944 50.2219 2.40044 50.9375 2.76127 51.5491C3.1221 52.1606 3.6995 52.5951 4.38709 52.7725C4.6259 52.8341 4.87043 52.8627 5.11318 52.857C6.2963 52.8302 7.32931 52.0099 7.62536 50.8622C9.40944 43.9446 12.9897 37.5453 17.979 32.3559C22.9367 27.1994 29.1462 23.3779 35.9362 21.3043C36.2986 21.1937 36.6917 21.2613 36.9962 21.4866C37.3007 21.7118 37.4803 22.0681 37.4806 22.4467L37.4826 25.9258C37.4833 27.1619 38.123 28.2685 39.1939 28.886C40.2649 29.5034 41.543 29.5026 42.6129 28.8838L55.902 21.1999C56.9721 20.5813 57.6104 19.474 57.6097 18.2381C57.609 17.0021 56.9695 15.8956 55.8988 15.2782H55.8987L42.6007 7.60929C42.0658 7.30093 41.4791 7.14675 40.8926 7.14675Z" fill="black"/>
<path d="M54.8256 18.8191C54.6264 18.8191 54.4244 18.7692 54.2385 18.6642L45.2853 13.6036C44.7107 13.2788 44.5082 12.5496 44.8329 11.975C45.1579 11.4003 45.8871 11.1978 46.4616 11.5226L55.4148 16.5832C55.9895 16.9079 56.192 17.6371 55.8672 18.2118C55.6474 18.6006 55.2424 18.8191 54.8256 18.8191Z" fill="black"/>
<path d="M42.2422 11.707C42.043 11.707 41.8411 11.6572 41.6552 11.5521L40.3241 10.7999C39.7494 10.4752 39.5469 9.74596 39.8717 9.17131C40.1965 8.59654 40.9254 8.39407 41.5004 8.71893L42.8315 9.47119C43.4061 9.79592 43.6086 10.5251 43.2839 11.0998C43.0641 11.4886 42.659 11.707 42.2422 11.707Z" fill="black"/>
</g>
<defs>
<clipPath id="clip0_13_663">
<rect width="60" height="60" fill="white"/>
</clipPath>
</defs>
</svg>
