<svg width="60" height="60" viewBox="0 0 60 60" fill="none" xmlns="http://www.w3.org/2000/svg">
<g clip-path="url(#clip0_13_327)">
<path d="M3.50431 14.2424L16.8023 6.5736C19.8795 4.79909 23.7237 7.02133 23.7217 10.5735L23.7194 14.4496C31.511 16.414 38.6979 20.2904 44.6472 25.7648C51.4925 32.0637 56.3452 40.1797 58.6806 49.2354C59.2121 51.2962 57.9723 53.3979 55.9115 53.9292C55.5594 54.0201 55.2062 54.0592 54.8598 54.0514C53.1784 54.0133 51.6582 52.869 51.2176 51.1601C47.6733 37.4171 37.1083 26.5369 23.715 22.4468L23.713 25.9259C23.7109 29.4781 19.8642 31.6959 16.7891 29.9178L3.49977 22.2342C0.425006 20.4563 0.427516 16.0167 3.50431 14.2424Z" fill="black"/>
<path d="M54.9464 55.2476C54.9086 55.2476 54.8706 55.2471 54.8327 55.2463C52.5849 55.1954 50.6223 53.6378 50.0604 51.4587C46.7908 38.7818 37.229 28.4312 24.9091 24.0969L24.908 25.9268C24.9068 28.0271 23.8199 29.9072 22.0002 30.9564C20.1807 32.0054 18.009 32.0041 16.1907 30.9527L2.90145 23.2688C1.08343 22.2176 -0.00120947 20.3362 -1.42721e-05 18.2361C0.00118093 16.1361 1.08809 14.256 2.9073 13.2069L16.2052 5.53813C18.0246 4.48886 20.1964 4.48994 22.0148 5.54111C23.8332 6.59217 24.9181 8.47365 24.9169 10.5739L24.9152 13.5274C32.5412 15.6059 39.6264 19.5204 45.4565 24.885C52.4717 31.3404 57.4448 39.6573 59.8379 48.9367C60.1746 50.2426 59.9828 51.6014 59.2976 52.763C58.6124 53.9245 57.5158 54.7497 56.2099 55.0864C55.7958 55.1936 55.3711 55.2476 54.9464 55.2476ZM23.715 21.2517C23.8319 21.2517 23.9495 21.269 24.064 21.3039C30.854 23.3774 37.0634 27.1989 42.0211 32.3554C47.0106 37.5448 50.5908 43.9441 52.375 50.8617C52.671 52.0094 53.7039 52.8298 54.8869 52.8565C55.1293 52.8623 55.3742 52.8337 55.613 52.772C56.3007 52.5946 56.8781 52.1602 57.239 51.5486C57.5998 50.937 57.7008 50.2214 57.5235 49.5339C55.2457 40.7019 50.5135 32.7868 43.838 26.6444C38.0703 21.337 31.0123 17.5208 23.4275 15.6086C22.8964 15.4746 22.5241 14.9968 22.5244 14.4489L22.5267 10.5727C22.5274 9.33658 21.8888 8.22935 20.8188 7.61072C19.7485 6.99208 18.4702 6.99137 17.3997 7.60892L4.10131 15.2777C3.03065 15.8951 2.39098 17.0016 2.39038 18.2376C2.38966 19.4735 3.02802 20.5808 4.09808 21.1994L17.3872 28.8833C18.4574 29.5021 19.7356 29.503 20.8062 28.8855C21.8771 28.268 22.5169 27.1615 22.5175 25.9254L22.5195 22.4463C22.5198 22.0677 22.6994 21.7114 23.004 21.4862C23.2123 21.3321 23.4621 21.2517 23.715 21.2517Z" fill="black"/>
<path d="M10.1356 16.015C9.71875 16.015 9.31382 15.7965 9.09402 15.4076C8.76929 14.8329 8.97187 14.1037 9.54641 13.779L18.4998 8.71841C19.0744 8.39356 19.8035 8.59615 20.1284 9.1708C20.4532 9.74545 20.2506 10.4746 19.6761 10.7994L10.7227 15.86C10.5369 15.965 10.3349 16.015 10.1356 16.015Z" fill="black"/>
<path d="M5.1745 18.8187C4.75773 18.8187 4.3528 18.6002 4.133 18.2114C3.80815 17.6368 4.01073 16.9076 4.58526 16.5829L5.91623 15.8306C6.49089 15.506 7.21996 15.7083 7.54481 16.283C7.86967 16.8576 7.66708 17.5868 7.09255 17.9116L5.76158 18.6638C5.57572 18.7689 5.37373 18.8187 5.1745 18.8187Z" fill="black"/>
</g>
<defs>
<clipPath id="clip0_13_327">
<rect width="60" height="60" fill="white"/>
</clipPath>
</defs>
</svg>
