<svg width="60" height="60" viewBox="0 0 60 60" fill="none" xmlns="http://www.w3.org/2000/svg">
<g clip-path="url(#clip0_13_222)">
<path d="M3.50442 14.2426L16.8024 6.57385C19.8796 4.79934 23.7238 7.02157 23.7218 10.5737L23.7195 14.4498C31.5111 16.4143 38.698 20.2907 44.6473 25.765C51.4926 32.064 56.3453 40.1799 58.6807 49.2356C59.2122 51.2965 57.9725 53.3981 55.9116 53.9295C55.5595 54.0203 55.2063 54.0594 54.8599 54.0516C53.1785 54.0135 51.6583 52.8692 51.2177 51.1603C47.6734 37.4174 37.1084 26.5371 23.7151 22.447L23.7131 25.9261C23.711 29.4784 19.8643 31.6962 16.7892 29.9181L3.49988 22.2344C0.425113 20.4565 0.427623 16.017 3.50442 14.2426Z" fill="black"/>
<path d="M54.9465 55.2478C54.9086 55.2478 54.8706 55.2474 54.8327 55.2465C52.5849 55.1956 50.6224 53.638 50.0604 51.4589C46.7908 38.7821 37.229 28.4314 24.9091 24.0972L24.908 25.927C24.9068 28.0273 23.8199 29.9075 22.0002 30.9566C20.1807 32.0057 18.009 32.0043 16.1907 30.9529L2.90146 23.269C1.08345 22.2178 -0.00119421 20.3365 9.86738e-07 18.2364C0.00119618 16.1363 1.08811 14.2563 2.90732 13.2071L16.2052 5.53837C18.0247 4.48911 20.1965 4.49018 22.0148 5.54136C23.8332 6.59241 24.9181 8.47389 24.9169 10.5741L24.9152 13.5277C32.5412 15.6061 39.6264 19.5206 45.4565 24.8853C52.4717 31.3407 57.4448 39.6576 59.8379 48.937C60.1746 50.2428 59.9828 51.6016 59.2976 52.7633C58.6124 53.9248 57.5158 54.7499 56.2099 55.0866C55.7958 55.1938 55.3711 55.2478 54.9465 55.2478ZM23.715 21.252C23.8319 21.252 23.9495 21.2692 24.064 21.3041C30.854 23.3777 37.0634 27.1992 42.0211 32.3556C47.0106 37.545 50.5908 43.9444 52.375 50.8619C52.671 52.0097 53.7039 52.8301 54.8869 52.8567C55.1293 52.8626 55.3742 52.8339 55.613 52.7722C56.3007 52.5949 56.8781 52.1604 57.239 51.5488C57.5998 50.9372 57.7008 50.2217 57.5235 49.5342C55.2457 40.7022 50.5135 32.7871 43.8381 26.6446C38.0703 21.3372 31.0123 17.5211 23.4275 15.6089C22.8964 15.4749 22.5241 14.997 22.5245 14.4492L22.5267 10.5729C22.5274 9.33683 21.8889 8.2296 20.8188 7.61096C19.7485 6.99233 18.4702 6.99161 17.3997 7.60917L4.10132 15.2779C3.03066 15.8954 2.39099 17.0019 2.3904 18.2378C2.38968 19.4738 3.02803 20.581 4.09809 21.1996L17.3873 28.8836C18.4574 29.5023 19.7356 29.5033 20.8062 28.8857C21.8771 28.2683 22.5169 27.1618 22.5175 25.9257L22.5196 22.4466C22.5198 22.068 22.6994 21.7117 23.004 21.4865C23.2123 21.3323 23.4621 21.252 23.715 21.252Z" fill="black"/>
<path d="M10.1357 16.0152C9.7188 16.0152 9.31387 15.7967 9.09407 15.4078C8.76933 14.8332 8.97192 14.104 9.54645 13.7792L18.4998 8.71866C19.0744 8.3938 19.8035 8.59639 20.1285 9.17104C20.4532 9.74569 20.2506 10.4749 19.6761 10.7996L10.7228 15.8602C10.5369 15.9653 10.3349 16.0152 10.1357 16.0152Z" fill="black"/>
<path d="M5.17446 18.8192C4.7577 18.8192 4.35277 18.6007 4.13297 18.2119C3.80811 17.6373 4.0107 16.9081 4.58523 16.5834L5.9162 15.8311C6.49086 15.5065 7.21993 15.7088 7.54478 16.2835C7.86964 16.8581 7.66705 17.5873 7.09252 17.9121L5.76155 18.6643C5.57569 18.7694 5.3737 18.8192 5.17446 18.8192Z" fill="black"/>
</g>
<defs>
<clipPath id="clip0_13_222">
<rect width="60" height="60" fill="white"/>
</clipPath>
</defs>
</svg>
