<svg width="62" height="59" viewBox="0 0 62 59" fill="none" xmlns="http://www.w3.org/2000/svg">
<path d="M61.1335 56.7378C61.1335 57.9912 60.1927 59.0063 59.0312 59.0063H2.96879C1.80726 59.0063 0.866516 57.9912 0.866516 56.7378C0.866516 55.4844 1.80726 54.4693 2.96879 54.4693H59.0285C60.19 54.4693 61.1308 55.4844 61.1308 56.7378H61.1335ZM3.12621 46.609C1.67036 45.038 0.868871 42.9481 0.868871 40.7278C0.868871 38.5075 1.67036 36.4176 3.12621 34.8466L33.1386 2.4609C36.0502 -0.680978 41.1272 -0.680978 44.0388 2.4609L58.8758 18.4712C61.8821 21.7152 61.8821 26.9892 58.8758 30.2334L39.9183 50.69H29.67L12.0291 31.654L6.09805 38.0541C4.7316 39.5286 4.7316 41.9275 6.09805 43.3993L12.8516 50.6868H6.9074L3.12594 46.6063L3.12621 46.609ZM15.0039 28.4463L34.7942 49.8016L55.901 27.0257C57.2674 25.5512 57.2674 23.1522 55.901 21.6804L41.064 5.67015C39.6949 4.19848 37.477 4.19848 36.1105 5.67015L15.0039 28.4463Z" fill="black"/>
</svg>
