<svg width="60" height="56" viewBox="0 0 60 56" fill="none" xmlns="http://www.w3.org/2000/svg">
<path d="M8.67615 49.0768C8.90808 49.0768 9.14148 49.0389 9.36804 48.9606L20.7999 45.0205C20.8141 45.0156 20.8263 45.0065 20.8402 45.0013C20.9462 44.9623 21.0472 44.9113 21.1473 44.855C21.181 44.8359 21.2169 44.8219 21.2496 44.8011C21.3754 44.7206 21.4952 44.6277 21.6053 44.5181C21.6066 44.5167 21.6083 44.5159 21.6097 44.5145L47.5082 18.6161C47.5092 18.6152 47.5101 18.6146 47.5111 18.6137C47.5121 18.6128 47.5126 18.6116 47.5135 18.6107L54.4113 11.7129C55.2406 10.8838 55.2406 9.53886 54.4113 8.70976L46.9196 1.21794C46.0897 0.38829 44.745 0.38829 43.9159 1.21794L37.0179 8.11571C37.017 8.11662 37.016 8.11723 37.015 8.11815C37.014 8.11906 37.0135 8.12022 37.0126 8.12114L11.1154 34.0184C11.1149 34.0188 11.1144 34.019 11.1141 34.0195C11.0028 34.1307 10.9091 34.2524 10.8275 34.3798C10.8073 34.4116 10.7933 34.4466 10.775 34.4794C10.7181 34.5797 10.6669 34.6814 10.6278 34.7879C10.6224 34.8022 10.6132 34.8144 10.6083 34.8288L6.66809 46.2608C6.40344 47.0287 6.59998 47.8806 7.17419 48.4546C7.57947 48.8595 8.12219 49.0768 8.67615 49.0768ZM13.5167 39.4257L16.203 42.1122L12.1039 43.5251L13.5167 39.4257ZM38.5172 12.6235L43.0055 17.1119L20.1073 40.0098L15.6193 35.5213L38.5172 12.6235ZM45.4176 5.72319L49.9061 10.2113L46.0089 14.1084L41.5206 9.6201L45.4176 5.72319ZM59.6288 53.2803C59.6288 54.4531 58.6779 55.404 57.505 55.404H2.495C1.32214 55.404 0.371216 54.4531 0.371216 53.2803C0.371216 52.1074 1.32214 51.1565 2.495 51.1565H57.505C58.6779 51.1565 59.6288 52.1074 59.6288 53.2803Z" fill="black"/>
</svg>
