<svg width="62" height="59" viewBox="0 0 62 59" fill="none" xmlns="http://www.w3.org/2000/svg">
<path d="M61.1334 56.7378C61.1334 57.9912 60.1927 59.0063 59.0311 59.0063H2.96873C1.8072 59.0063 0.866455 57.9912 0.866455 56.7378C0.866455 55.4844 1.8072 54.4693 2.96873 54.4693H59.0284C60.19 54.4693 61.1307 55.4844 61.1307 56.7378H61.1334ZM3.12615 46.609C1.6703 45.038 0.86881 42.9481 0.86881 40.7278C0.86881 38.5075 1.6703 36.4176 3.12615 34.8466L33.1385 2.4609C36.0502 -0.680978 41.1272 -0.680978 44.0387 2.4609L58.8757 18.4712C61.882 21.7152 61.882 26.9892 58.8757 30.2334L39.9183 50.69H29.6699L12.029 31.654L6.09799 38.0541C4.73154 39.5286 4.73154 41.9275 6.09799 43.3993L12.8515 50.6868H6.90734L3.12588 46.6063L3.12615 46.609ZM15.0038 28.4463L34.7941 49.8016L55.9009 27.0257C57.2674 25.5512 57.2674 23.1522 55.9009 21.6804L41.0639 5.67015C39.6948 4.19848 37.4769 4.19848 36.1104 5.67015L15.0038 28.4463Z" fill="black"/>
</svg>
