<svg width="60" height="56" viewBox="0 0 60 56" fill="none" xmlns="http://www.w3.org/2000/svg">
<path d="M8.67615 49.077C8.90808 49.077 9.14148 49.0392 9.36804 48.9609L20.7999 45.0207C20.8141 45.0159 20.8263 45.0067 20.8402 45.0015C20.9462 44.9626 21.0472 44.9115 21.1473 44.8552C21.181 44.8362 21.2169 44.8221 21.2496 44.8013C21.3754 44.7208 21.4952 44.628 21.6053 44.5184C21.6066 44.517 21.6083 44.5161 21.6097 44.5147L47.5082 18.6164C47.5092 18.6155 47.5101 18.6149 47.5111 18.6139C47.5121 18.613 47.5126 18.6119 47.5135 18.6109L54.4113 11.7132C55.2406 10.8841 55.2406 9.53911 54.4113 8.71001L46.9196 1.21819C46.0897 0.388535 44.745 0.388535 43.9159 1.21819L37.0179 8.11595C37.017 8.11687 37.016 8.11748 37.015 8.11839C37.014 8.11931 37.0135 8.12047 37.0126 8.12138L11.1154 34.0186C11.1149 34.019 11.1144 34.0193 11.1141 34.0197C11.0028 34.131 10.9091 34.2527 10.8275 34.3801C10.8073 34.4118 10.7933 34.4469 10.775 34.4797C10.7181 34.5799 10.6669 34.6817 10.6278 34.7881C10.6224 34.8024 10.6132 34.8147 10.6083 34.8291L6.66809 46.261C6.40344 47.0289 6.59998 47.8808 7.17419 48.4548C7.57947 48.8597 8.12219 49.077 8.67615 49.077ZM13.5167 39.4259L16.203 42.1125L12.1039 43.5254L13.5167 39.4259ZM38.5172 12.6238L43.0055 17.1121L20.1073 40.0101L15.6193 35.5216L38.5172 12.6238ZM45.4176 5.72343L49.9061 10.2116L46.0089 14.1086L41.5206 9.62035L45.4176 5.72343ZM59.6288 53.2805C59.6288 54.4534 58.6779 55.4043 57.505 55.4043H2.495C1.32214 55.4043 0.371216 54.4534 0.371216 53.2805C0.371216 52.1077 1.32214 51.1567 2.495 51.1567H57.505C58.6779 51.1567 59.6288 52.1077 59.6288 53.2805Z" fill="black"/>
</svg>
