<svg width="30" height="30" viewBox="0 0 30 30" fill="none" xmlns="http://www.w3.org/2000/svg">
<path d="M28.516 11.6871C25.496 6.35862 18.7368 3.66375 12.2652 4.6437L13.9909 1.88758C14.4224 1.27511 14.1347 0.478896 13.4157 0.17266C12.6966 -0.194822 11.7618 0.0501663 11.4023 0.662637L7.87889 6.23612C7.87889 6.23612 7.08792 7.33857 8.31033 7.82855L14.8538 10.8297C15.0695 10.9522 15.3572 11.0134 15.5729 11.0134C16.0762 11.0134 16.6515 10.7684 16.8672 10.3397C17.2986 9.72721 17.011 8.931 16.2919 8.62476L12.9123 7.03234C18.0177 6.29737 23.3388 8.50227 25.7117 12.6671C28.5879 17.7506 26.0712 23.8753 20.103 26.2639C17.2267 27.4276 13.9909 27.6114 10.9709 26.6927C7.95079 25.7739 5.50598 23.9365 4.13975 21.4867C2.77353 19.0368 2.55781 16.2806 3.63641 13.7083C3.92404 13.0346 3.4926 12.2996 2.70163 12.0546C1.98256 11.9321 1.11969 12.2996 0.83206 12.9733C-0.462255 16.2194 -0.246536 19.6492 1.47922 22.7116C3.20497 25.7739 6.22504 28.1013 10.0361 29.265C11.6899 29.755 13.3438 30 14.9976 30C17.2267 30 19.4558 29.5713 21.4692 28.7138C28.9475 25.6515 32.1113 17.9956 28.516 11.6871Z" fill="black"/>
</svg>
