<svg width="60" height="56" viewBox="0 0 60 56" fill="none" xmlns="http://www.w3.org/2000/svg">
<path d="M8.67603 49.077C8.90796 49.077 9.14136 49.0392 9.36792 48.9609L20.7998 45.0207C20.814 45.0159 20.8262 45.0067 20.8401 45.0015C20.946 44.9626 21.0471 44.9115 21.1472 44.8552C21.1809 44.8362 21.2168 44.8221 21.2495 44.8013C21.3752 44.7208 21.4951 44.628 21.6052 44.5184C21.6064 44.517 21.6082 44.5161 21.6096 44.5147L47.5081 18.6164C47.509 18.6155 47.51 18.6149 47.511 18.6139C47.512 18.613 47.5125 18.6119 47.5134 18.6109L54.4111 11.7132C55.2405 10.8841 55.2405 9.53911 54.4111 8.71001L46.9194 1.21819C46.0896 0.388535 44.7449 0.388535 43.9158 1.21819L37.0178 8.11595C37.0168 8.11687 37.0159 8.11748 37.0149 8.11839C37.0139 8.11931 37.0134 8.12047 37.0125 8.12138L11.1152 34.0186C11.1147 34.019 11.1143 34.0193 11.114 34.0197C11.0027 34.131 10.9089 34.2527 10.8274 34.3801C10.8071 34.4118 10.7932 34.4469 10.7749 34.4797C10.718 34.5799 10.6667 34.6817 10.6277 34.7881C10.6223 34.8024 10.613 34.8147 10.6082 34.8291L6.66797 46.261C6.40332 47.0289 6.59985 47.8808 7.17407 48.4548C7.57935 48.8597 8.12207 49.077 8.67603 49.077ZM13.5166 39.4259L16.2029 42.1125L12.1038 43.5254L13.5166 39.4259ZM38.5171 12.6238L43.0054 17.1121L20.1072 40.0101L15.6191 35.5216L38.5171 12.6238ZM45.4175 5.72343L49.906 10.2116L46.0088 14.1086L41.5205 9.62035L45.4175 5.72343ZM59.6287 53.2805C59.6287 54.4534 58.6777 55.4043 57.5049 55.4043H2.49487C1.32202 55.4043 0.371094 54.4534 0.371094 53.2805C0.371094 52.1077 1.32202 51.1567 2.49487 51.1567H57.5049C58.6777 51.1567 59.6287 52.1077 59.6287 53.2805Z" fill="black"/>
</svg>
